# xmcd CD database file
# Copyright (C) 1993-1996 Ti Kan
#
# Track frame offsets:
# 222
# 11470
# 21425
# 35270
# 46022
# 56430
# 65782
# 76672
# 87340
# 99080
# 110407
# 120942
# 132447
# 144005
# 154432
# 166850
# 178717
# 191320
# 202415
# 213515
# 222442
# 232800
# 247240
#
# Disc length: 3432 seconds
#
# Revision: 0
# Processed by: cddbd v1.4b41PL1 Copyright (c) Steve Scherf et al.
# Submitted via: inCDius 1.1b5
#
DISCID=360d6617
DTITLE=Patsy Cline - Crazy Dreams - The Four Star Years -Disc 1
DYEAR=1900
DGENRE=
TTITLE0=Hidin' Out
TTITLE1=Turn The Cards Slowly
TTITLE2=A Church, A Courtroom, And Then Goodbye
TTITLE3=Honky Tonk Merry - Go - Round
TTITLE4=I Love You Honey
TTITLE5=Come On In
TTITLE6=I Cried All The Way To The Altar
TTITLE7=Stop, Look And Listen
TTITLE8=I've Loved And Lost Again
TTITLE9=Dear God
TTITLE10=He Will Do For You
TTITLE11=Walkin' After Midnight
TTITLE12=The Heart You Break May Be Your Own
TTITLE13=Pick Me Up On Your Way Down
TTITLE14=A Poor Man's Roses
TTITLE15=Today, Tomorrow And Forever
TTITLE16=Fingerprints
TTITLE17=A Stranger In My Arms
TTITLE18=Don't Ever Leave Me
TTITLE19=Try Again
TTITLE20=Too Many Secrets
TTITLE21=Then You'll Know
TTITLE22=Three Cigarettes In An Ashtray
EXTD=
EXTT0=
EXTT1=
EXTT2=
EXTT3=
EXTT4=
EXTT5=
EXTT6=
EXTT7=
EXTT8=
EXTT9=
EXTT10=
EXTT11=
EXTT12=
EXTT13=
EXTT14=
EXTT15=
EXTT16=
EXTT17=
EXTT18=
EXTT19=
EXTT20=
EXTT21=
EXTT22=
PLAYORDER=
